<svg data-v-423bf9ae="" xmlns="http://www.w3.org/2000/svg" viewBox="0 0 344.65251135318937 163" class="iconAbove"><!----><!----><!----><g data-v-423bf9ae="" id="7eb7cc54-c171-4550-87fe-5a0b48464397" fill="black" transform="matrix(5.7915059834320255,0,0,5.7915059834320255,-1.389964945789302,83.36679434703086)"><path d="M1.26 3.84C0.85 3.84 0.64 3.82 0.59 3.82C0.42 3.82 0.34 3.92 0.34 4.07C0.34 4.37 0.45 4.42 0.59 4.42C1.06 4.47 1.32 4.48 1.32 4.87L1.32 12.53C1.32 12.77 1.18 12.78 1.02 12.81C0.42 12.88 0.24 12.87 0.24 13.13C0.24 13.45 0.36 13.47 0.50 13.47L0.53 13.47C1.16 13.47 1.64 13.44 2.13 13.44C2.77 13.44 3.40 13.52 4.05 13.52C5.05 13.52 5.57 13.27 5.73 13.20C6.55 12.84 7.50 11.90 7.50 10.56C7.50 9.31 6.64 8.33 5.56 8.12C5.53 8.11 5.52 8.09 5.52 8.08C5.52 8.06 5.53 8.05 5.54 8.04C6.29 7.57 6.87 6.76 6.87 5.88C6.87 5.12 6.43 4.56 6.02 4.27C5.29 3.77 4.27 3.71 3.70 3.71C2.86 3.71 2.11 3.84 1.26 3.84ZM5.63 6.17C5.63 6.45 5.56 6.72 5.43 6.97C4.98 7.83 4.03 7.87 3.47 7.87L3.29 7.87L2.66 7.87C2.53 7.87 2.52 7.80 2.52 7.69L2.52 4.69L2.52 4.66C2.52 4.61 2.52 4.54 2.59 4.48C2.73 4.37 3.29 4.33 3.57 4.33C5.21 4.33 5.63 5.50 5.63 6.17ZM3.60 12.87C3.37 12.87 3.15 12.84 2.94 12.81C2.53 12.74 2.52 12.53 2.52 12.29L2.52 8.68C2.52 8.57 2.53 8.47 2.72 8.47L3.43 8.47C3.82 8.47 4.23 8.47 4.61 8.55C5.82 8.82 6.26 9.80 6.26 10.63C6.26 12.10 4.98 12.87 3.60 12.87ZM8.30 8.61C8.30 8.93 8.60 9.11 8.86 9.11C9.04 9.11 9.13 9.02 9.17 8.96C9.20 8.90 9.58 8.02 10.37 8.02C10.74 8.02 11.02 8.22 11.19 8.40C11.47 8.72 11.52 9.07 11.52 9.52L11.52 10.02C11.52 10.12 11.51 10.19 11.41 10.22C11.38 10.23 9.70 10.29 8.95 10.89C8.61 11.16 8.36 11.61 8.36 12.14L8.36 12.15C8.36 13.01 8.99 13.72 9.95 13.72C10.47 13.72 10.93 13.54 11.26 13.33C11.61 13.09 11.56 13.02 11.63 13.02C11.65 13.02 11.65 13.03 11.66 13.03C11.69 13.05 12.03 13.61 12.66 13.61C13.38 13.61 13.73 12.82 13.73 12.50C13.73 12.38 13.66 12.32 13.61 12.32C13.40 12.32 13.43 12.78 12.99 12.78C12.85 12.78 12.52 12.71 12.52 12.17L12.52 9.41C12.52 9.24 12.50 9.07 12.49 8.90C12.35 7.53 10.99 7.36 10.46 7.36C9.30 7.36 8.30 8.11 8.30 8.61ZM10.29 12.95C10.11 12.95 9.86 12.92 9.69 12.77C9.46 12.57 9.39 12.22 9.39 12.00C9.39 11.65 9.55 11.40 9.73 11.24C10.19 10.81 11.14 10.74 11.40 10.74C11.52 10.74 11.54 10.81 11.54 11.14L11.54 11.72L11.54 12.05C11.54 12.18 11.52 12.28 11.45 12.38C11.38 12.47 10.98 12.95 10.29 12.95ZM14.38 8.33L14.83 8.33C14.91 8.33 14.92 8.39 14.92 8.46C14.92 8.76 14.87 10.93 14.87 11.55C14.87 11.70 14.87 11.84 14.88 12.00C14.98 13.31 15.74 13.71 16.30 13.71C17.07 13.71 17.75 13.01 18.24 12.45C18.27 12.40 18.34 12.32 18.34 12.21C18.34 12.08 18.24 11.96 18.09 11.96C17.78 11.96 17.23 12.80 16.56 12.80C15.97 12.80 15.85 12.25 15.85 11.76C15.85 11.42 15.85 11.10 15.86 8.48C15.86 8.39 15.90 8.36 16.00 8.36L17.64 8.36C17.77 8.36 17.84 8.34 17.89 8.29C17.96 8.20 18.02 7.97 18.02 7.88C18.02 7.62 17.78 7.62 17.65 7.62C17.61 7.62 17.58 7.60 17.54 7.60L16.28 7.60C16.11 7.60 16.00 7.56 16.00 7.32C16.00 7.13 16.02 6.54 16.02 6.34C16.02 6.16 15.92 6.12 15.83 6.12C15.68 6.12 15.60 6.30 15.55 6.37C14.80 7.66 14.10 7.91 14.10 8.15C14.10 8.32 14.25 8.33 14.38 8.33ZM18.91 9.11C18.91 9.80 19.33 10.50 20.47 10.82C20.92 10.95 22.15 11.09 22.15 12.01C22.15 12.57 21.64 12.95 21.01 12.95C20.20 12.95 19.56 12.42 19.42 12.12C19.22 11.73 19.45 11.26 19.10 11.26C18.89 11.26 18.84 11.33 18.84 11.69C18.84 11.89 18.86 12.15 18.86 12.53C18.86 12.74 18.89 12.85 19.03 13.01C19.43 13.48 20.31 13.71 20.96 13.71C22.34 13.71 23.09 12.71 23.09 11.82C23.09 11.59 23.03 11.13 22.67 10.71C22.15 10.11 21.49 10.07 20.78 9.87C19.74 9.58 19.67 9.06 19.67 8.86C19.67 8.41 20.08 8.12 20.55 8.12C21.01 8.12 21.52 8.41 21.70 8.67C21.90 8.95 21.85 9.35 22.15 9.35C22.26 9.35 22.47 9.31 22.47 9.13C22.47 9.07 22.29 8.15 22.20 7.66C22.19 7.59 22.15 7.39 21.98 7.39C21.81 7.39 21.76 7.53 21.63 7.53C21.56 7.53 21.35 7.46 20.93 7.46C19.67 7.46 18.91 8.27 18.91 9.11ZM23.74 3.79C23.46 3.79 23.39 4.03 23.39 4.19C23.39 4.30 23.45 4.37 23.46 4.38C23.66 4.62 24.09 4.31 24.28 4.75C24.39 5.04 25.31 8.30 27.22 12.96C27.36 13.29 27.45 13.75 27.76 13.75C27.80 13.75 27.85 13.73 27.89 13.71C28.10 13.61 27.99 13.75 29.89 8.82C29.90 8.79 29.92 8.76 29.95 8.76C30.02 8.76 30.00 8.79 31.67 13.01C31.79 13.36 31.98 13.75 32.26 13.75C32.49 13.75 32.65 13.48 32.83 13.08C35.11 8.20 36.09 4.94 36.19 4.76C36.48 4.23 37.21 4.66 37.21 4.12C37.21 3.86 37.11 3.79 36.97 3.79C36.83 3.79 36.41 3.84 35.59 3.84L35.57 3.84C34.72 3.84 34.30 3.79 34.16 3.79C33.95 3.79 33.91 3.93 33.91 4.10C33.91 4.27 33.94 4.40 34.19 4.42C34.79 4.49 35.11 4.47 35.11 4.82C35.11 5.12 34.19 8.39 32.80 11.31C32.77 11.40 32.70 11.56 32.58 11.56L32.56 11.56C32.49 11.56 32.44 11.49 32.40 11.44C32.21 11.19 30.86 7.91 29.88 4.96C29.86 4.89 29.85 4.83 29.85 4.77C29.85 4.51 30.06 4.45 30.28 4.42C30.74 4.37 30.88 4.38 30.88 4.10C30.88 3.92 30.84 3.79 30.65 3.79C30.51 3.79 30.07 3.84 29.22 3.84L29.20 3.84C28.34 3.84 27.90 3.79 27.76 3.79C27.57 3.79 27.44 3.91 27.44 4.12C27.44 4.37 27.54 4.42 27.68 4.42C28.50 4.47 28.48 4.42 28.66 4.96C29.57 7.59 29.58 7.60 29.58 7.71L29.58 7.73C29.58 7.78 29.57 7.84 29.55 7.90C28.17 11.40 28.21 11.40 28.06 11.40C27.97 11.40 27.89 11.26 27.85 11.14C26.70 8.06 26.46 7.45 25.66 4.94C25.63 4.89 25.62 4.83 25.62 4.76C25.62 4.73 25.63 4.65 25.69 4.58C25.94 4.27 26.66 4.66 26.66 4.14C26.66 4.02 26.66 3.79 26.40 3.79C26.28 3.79 25.87 3.84 25.09 3.84C24.28 3.84 23.87 3.79 23.74 3.79ZM37.53 10.58C37.53 12.31 38.72 13.71 40.50 13.71C42.07 13.71 43.48 12.59 43.48 10.58C43.48 8.71 42.22 7.39 40.56 7.39C38.99 7.39 37.53 8.64 37.53 10.58ZM40.54 13.02C39.40 13.02 38.63 11.97 38.63 10.51C38.63 8.64 39.73 8.05 40.46 8.05C41.52 8.05 42.53 9.14 42.53 10.64C42.53 11.89 41.73 13.02 40.54 13.02ZM45.81 8.16C45.78 8.16 45.77 8.13 45.77 8.09L45.77 7.53C45.77 7.41 45.75 7.25 45.60 7.25C45.56 7.25 45.51 7.28 45.47 7.29C44.02 8.01 44.00 7.98 44.00 8.05C44.02 8.11 44.04 8.13 44.06 8.15C44.72 8.62 44.83 8.61 44.83 8.89L44.83 12.60C44.83 12.81 44.77 12.89 44.58 12.94C44.20 13.03 43.95 12.95 43.95 13.29C43.95 13.43 44.03 13.52 44.17 13.52C44.21 13.52 44.81 13.44 45.60 13.44C46.35 13.44 46.97 13.52 47.01 13.52C47.19 13.52 47.21 13.36 47.21 13.24C47.21 12.92 47.03 12.98 46.19 12.91C45.85 12.88 45.84 12.64 45.84 12.49L45.84 12.43L45.84 9.07C45.84 8.97 45.84 8.90 45.89 8.82C45.98 8.69 46.54 8.25 46.98 8.25C47.45 8.25 47.46 8.60 47.81 8.60C48.05 8.60 48.23 8.41 48.38 8.32C48.50 8.22 48.75 8.06 48.76 7.83L48.76 7.81C48.76 7.42 48.12 7.20 47.67 7.20C47.52 7.20 47.39 7.21 47.26 7.25C46.89 7.39 45.86 8.16 45.81 8.16ZM51.93 13.27L51.93 13.29C51.93 13.50 52.04 13.52 52.11 13.52C52.15 13.52 52.74 13.44 53.45 13.44C54.18 13.44 54.75 13.52 54.80 13.52C54.96 13.52 55.02 13.40 55.02 13.23C55.02 13.03 54.89 13.01 54.80 12.99C54.12 12.91 53.73 12.45 53.37 12.01C51.74 10.07 51.74 10.09 51.74 10.02C51.74 9.98 51.79 9.95 51.84 9.90C52.75 8.96 53.24 8.43 53.87 8.26C54.40 8.12 54.68 8.26 54.68 7.90C54.68 7.73 54.63 7.63 54.47 7.63C54.32 7.63 53.86 7.67 52.93 7.67L52.12 7.67C51.97 7.67 51.83 7.71 51.83 7.85L51.83 7.99C51.83 8.19 52.19 8.18 52.19 8.58C52.19 8.92 52.05 8.96 50.81 10.23C50.79 10.26 50.75 10.29 50.72 10.29C50.68 10.29 50.68 10.26 50.68 10.23L50.68 3.63C50.68 3.53 50.67 3.39 50.53 3.39C50.47 3.39 50.47 3.39 49.14 3.98C49.06 4.00 48.86 4.06 48.86 4.21C48.86 4.21 48.86 4.27 48.92 4.33C48.93 4.34 49.34 4.62 49.56 4.77C49.69 4.86 49.73 4.93 49.73 5.11L49.73 12.66C49.69 13.15 49.01 12.77 49.01 13.24C49.01 13.34 49.07 13.50 49.25 13.50C49.36 13.50 49.69 13.44 50.34 13.44C51.00 13.44 51.32 13.50 51.42 13.50C51.51 13.50 51.62 13.45 51.62 13.26C51.62 13.03 51.45 12.99 51.32 12.96C50.79 12.89 50.68 12.91 50.68 12.63L50.68 11.19C50.68 11.13 50.68 11.07 50.69 11.03C50.71 10.98 51.00 10.63 51.09 10.63C51.11 10.63 51.14 10.64 51.14 10.65C51.16 10.67 52.58 12.40 52.58 12.71C52.58 13.13 51.93 12.74 51.93 13.27ZM55.58 9.11C55.58 9.80 56.00 10.50 57.13 10.82C57.58 10.95 58.81 11.09 58.81 12.01C58.81 12.57 58.31 12.95 57.68 12.95C56.87 12.95 56.22 12.42 56.08 12.12C55.89 11.73 56.11 11.26 55.76 11.26C55.55 11.26 55.51 11.33 55.51 11.69C55.51 11.89 55.52 12.15 55.52 12.53C55.52 12.74 55.55 12.85 55.69 13.01C56.10 13.48 56.98 13.71 57.62 13.71C59.01 13.71 59.75 12.71 59.75 11.82C59.75 11.59 59.70 11.13 59.33 10.71C58.81 10.11 58.16 10.07 57.44 9.87C56.41 9.58 56.34 9.06 56.34 8.86C56.34 8.41 56.74 8.12 57.22 8.12C57.68 8.12 58.18 8.41 58.37 8.67C58.56 8.95 58.52 9.35 58.81 9.35C58.93 9.35 59.14 9.31 59.14 9.13C59.14 9.07 58.95 8.15 58.87 7.66C58.86 7.59 58.81 7.39 58.65 7.39C58.48 7.39 58.42 7.53 58.30 7.53C58.23 7.53 58.02 7.46 57.60 7.46C56.34 7.46 55.58 8.27 55.58 9.11Z"></path></g><!----><g data-v-423bf9ae="" id="0edaca80-5d8e-48a4-9cd7-d81d058cf474" transform="matrix(4.090909090909091,0,0,4.090909090909091,123.90881763805044,-4.0909090909090935)" stroke="none" fill="black"><circle cx="7.5" cy="12" r=".25"></circle><circle cx="10.5" cy="18" r=".25"></circle><circle cx="12" cy="12.5" r=".25"></circle><circle cx="4.5" cy="14" r=".25"></circle><circle cx="13.5" cy="8" r=".25"></circle><circle cx="16.5" cy="10" r=".25"></circle><circle cx="14.5" cy="12" r=".25"></circle><circle cx="14.5" cy="4" r=".25"></circle><circle cx="8" cy="7.5" r=".25"></circle><circle cx="9.5" cy="10" r=".25"></circle><circle cx="14.5" cy="20" r=".25"></circle><circle cx="11" cy="6.5" r=".25"></circle><circle cx="12.5" cy="16" r=".25"></circle><circle cx="18.5" cy="16" r=".25"></circle><path d="M18.5 16.75a.75.75 0 11.7-1h1.776a2.126 2.126 0 00-.101-.425 3.047 3.047 0 00.84-1.075h-3.887a2.266 2.266 0 01-1.59-.66l-1.149-1.147a.737.737 0 01-.589.307.75.75 0 010-1.5.741.741 0 01.724.62l1.367 1.367a1.762 1.762 0 001.237.513h4.068a2.878 2.878 0 00-.476-2.5h-2.592a2.266 2.266 0 01-1.59-.66l-.149-.148a.737.737 0 01-.589.308.75.75 0 010-1.5.741.741 0 01.724.62l.367.367a1.762 1.762 0 001.237.513h2.128a3.052 3.052 0 00-.516-.367A1.996 1.996 0 0019 7c-.065 0-.126.013-.19.02a3.2 3.2 0 00.151-.628L17.762 7.59a2.266 2.266 0 01-1.59.659h-1.973a.75.75 0 110-.5h1.973a1.762 1.762 0 001.237-.513l1.559-1.558a2.972 2.972 0 00-.54-1.429h-3.229a.75.75 0 110-.5h2.766A2.975 2.975 0 0016 3a2 2 0 00-4 0 1.994 1.994 0 00-1.75-1.975v1.146a2.236 2.236 0 01-.66 1.592l-.827.828a1.737 1.737 0 00-.513 1.238V6.8a.75.75 0 11-.5 0v-.972a2.236 2.236 0 01.66-1.592l.827-.828a1.737 1.737 0 00.513-1.238V1.025A1.994 1.994 0 008 3a2.974 2.974 0 00-2.81 4.02C5.126 7.012 5.065 7 5 7a1.988 1.988 0 00-1.55.75h.722a2.266 2.266 0 011.59.66l.828.827a1.762 1.762 0 001.238.513h.973a.75.75 0 110 .5h-.973a2.266 2.266 0 01-1.59-.66l-.829-.827a1.762 1.762 0 00-1.237-.513H3.148A1.99 1.99 0 003 9a1.962 1.962 0 00.194.84l1.397 1.397a1.762 1.762 0 001.237.513h.973a.75.75 0 110 .5h-.973a2.266 2.266 0 01-1.59-.66l-1.001-1A2.973 2.973 0 002 13a2.92 2.92 0 00.104.75h1.697a.75.75 0 110 .5H2.285a3.048 3.048 0 00.84 1.075 1.93 1.93 0 00.023 1.425h2.024a1.762 1.762 0 001.237-.513l.828-.828a2.266 2.266 0 011.591-.659h.344a1.762 1.762 0 001.237-.513l1.148-1.148a.737.737 0 01-.307-.589.75.75 0 011.5 0 .741.741 0 01-.62.724l-1.367 1.367a2.266 2.266 0 01-1.59.659h-.345a1.762 1.762 0 00-1.237.513l-.828.828a2.266 2.266 0 01-1.591.659H3.45A1.988 1.988 0 005 18a2.972 2.972 0 00.106.75h3.066a1.762 1.762 0 001.237-.513l.367-.367a.741.741 0 01.724-.62.75.75 0 010 1.5.737.737 0 01-.59-.307l-.147.148a2.266 2.266 0 01-1.591.66H5.28A2.994 2.994 0 008 21a2 2 0 004 0 2 2 0 004 0 2.975 2.975 0 001.965-.75H15.2a.75.75 0 110-.5h3.229a2.973 2.973 0 00.547-1.5h-1.147a2.266 2.266 0 01-1.59-.66l-.829-.827a1.762 1.762 0 00-1.237-.513h-.973a.75.75 0 110-.5h.973a2.266 2.266 0 011.59.66l.829.827a1.762 1.762 0 001.237.513h2.122a1.987 1.987 0 001.025-1.5H19.2a.745.745 0 01-.699.5zM11 7.25a.746.746 0 01-.25-1.45V4a.25.25 0 01.5 0v1.8A.746.746 0 0111 7.25z"></path></g><!----></svg>